<svg xmlns="http://www.w3.org/2000/svg" xmlns:xlink="http://www.w3.org/1999/xlink" width="41" height="9" version="1.1" viewBox="0 0 41 9"><title>Group 15</title><desc>Created with Sketch.</desc><g id="Web" fill="none" fill-rule="evenodd" stroke="none" stroke-width="1"><g id="namespace_web" transform="translate(-662.000000, -2594.000000)"><g id="contact" transform="translate(-75.000000, 2285.000000)"><g id="footer" transform="translate(320.000000, 299.000000)"><g id="terminal" transform="translate(405.000000, 0.000000)"><g id="Group-15" transform="translate(12.000000, 10.000000)"><path id="Close" fill="#EE6464" d="M4.5,9 C6.9852815,9 9,6.9852815 9,4.5 C9,2.0147185 6.9852815,0 4.5,0 C2.0147185,0 0,2.0147185 0,4.5 C0,6.9852815 2.0147185,9 4.5,9 Z"/><path id="Minimize" fill="#FFD753" d="M20.5,9 C22.9852815,9 25,6.9852815 25,4.5 C25,2.0147185 22.9852815,0 20.5,0 C18.0147185,0 16,2.0147185 16,4.5 C16,6.9852815 18.0147185,9 20.5,9 Z"/><path id="Zoom" fill="#27DE7C" d="M36.5,9 C38.9852815,9 41,6.9852815 41,4.5 C41,2.0147185 38.9852815,0 36.5,0 C34.0147185,0 32,2.0147185 32,4.5 C32,6.9852815 34.0147185,9 36.5,9 Z"/></g></g></g></g></g></g></svg>